<svg width="526" height="379" viewBox="0 0 526 379" fill="none" xmlns="http://www.w3.org/2000/svg">
<path d="M203.881 341.425C135.309 341.425 82.7833 341.16 81.2218 340.364C81.01 340.252 80.8487 340.063 80.7709 339.835C80.693 339.607 80.7044 339.358 80.8028 339.138C80.9011 338.918 81.079 338.745 81.3002 338.652C81.5214 338.56 81.7692 338.556 81.9932 338.642C88.8974 340.251 374.118 339.304 524.093 338.642C524.217 338.639 524.34 338.661 524.455 338.706C524.57 338.752 524.675 338.819 524.764 338.905C524.853 338.992 524.924 339.094 524.974 339.208C525.023 339.322 525.05 339.445 525.053 339.569C525.053 339.822 524.954 340.065 524.778 340.245C524.602 340.426 524.363 340.53 524.112 340.535C495.498 340.611 324.791 341.425 203.881 341.425Z" fill="#D1D3D4"/>
<path d="M135.929 272.678L492.676 272.678L492.676 0.927734L135.929 0.927734L135.929 272.678Z" fill="white"/>
<path d="M492.676 273.625H135.91C135.661 273.625 135.422 273.525 135.245 273.347C135.069 273.17 134.97 272.929 134.97 272.678V0.946667C134.97 0.695595 135.069 0.454806 135.245 0.277272C135.422 0.0997371 135.661 0 135.91 0H492.676C492.925 0 493.164 0.0997371 493.341 0.277272C493.517 0.454806 493.616 0.695595 493.616 0.946667V272.678C493.616 272.929 493.517 273.17 493.341 273.347C493.164 273.525 492.925 273.625 492.676 273.625ZM136.851 271.731H491.735V1.89333H136.851V271.731Z" fill="#231F20"/>
<path d="M231.178 140.429H211.726V236.458H231.178V140.429Z" fill="#E49012"/>
<path d="M264.721 173.032H245.269V236.458H264.721V173.032Z" fill="#E6E7E8"/>
<path d="M298.283 154.477H278.831V236.458H298.283V154.477Z" fill="#E6E7E8"/>
<path d="M313.39 236.667H197.917C197.668 236.667 197.428 236.567 197.252 236.389C197.076 236.212 196.977 235.971 196.977 235.72C196.977 235.469 197.076 235.228 197.252 235.051C197.428 234.873 197.668 234.773 197.917 234.773H313.39C313.639 234.773 313.879 234.873 314.055 235.051C314.232 235.228 314.331 235.469 314.331 235.72C314.326 235.97 314.225 236.207 314.05 236.384C313.874 236.56 313.638 236.662 313.39 236.667Z" fill="#E6E7E8"/>
<path d="M100.787 282.712L164.995 130.716L299.187 167.124L219.232 348.108L100.787 282.712Z" fill="white"/>
<path d="M219.232 349.055C219.074 349.03 218.925 348.965 218.8 348.866L100.279 283.546C100.076 283.433 99.9219 283.249 99.8456 283.029C99.7692 282.809 99.7762 282.568 99.8653 282.353L164.073 130.337C164.164 130.129 164.327 129.962 164.53 129.864C164.734 129.767 164.966 129.747 165.183 129.807L299.375 166.216C299.506 166.246 299.628 166.307 299.732 166.392C299.837 166.477 299.92 166.585 299.977 166.708C300.037 166.832 300.068 166.968 300.068 167.106C300.068 167.243 300.037 167.379 299.977 167.503L220.022 348.487C219.969 348.607 219.891 348.714 219.794 348.802C219.697 348.89 219.582 348.957 219.458 348.998C219.386 349.027 219.31 349.047 219.232 349.055ZM101.991 282.296L218.8 346.783L297.813 167.749L165.465 131.776L101.991 282.296Z" fill="#231F20"/>
<path d="M135.741 291.838C135.612 291.873 135.476 291.873 135.346 291.838C135.234 291.787 135.133 291.714 135.049 291.624C134.965 291.533 134.9 291.426 134.858 291.309C134.816 291.193 134.798 291.069 134.804 290.945C134.81 290.822 134.841 290.7 134.895 290.589L199.14 149.649C199.243 149.421 199.431 149.243 199.664 149.154C199.897 149.066 200.155 149.073 200.382 149.176C200.61 149.283 200.787 149.476 200.875 149.713C200.963 149.95 200.955 150.213 200.852 150.444L136.607 291.384C136.514 291.529 136.386 291.648 136.234 291.728C136.082 291.807 135.912 291.846 135.741 291.838Z" fill="#E6E7E8"/>
<path d="M267.167 203.704H266.885L162.474 171.517C162.353 171.482 162.241 171.424 162.143 171.345C162.045 171.266 161.964 171.168 161.904 171.056C161.845 170.945 161.808 170.823 161.796 170.697C161.784 170.572 161.797 170.445 161.834 170.324C161.912 170.085 162.08 169.886 162.301 169.77C162.522 169.653 162.78 169.628 163.02 169.699L267.43 201.886C267.67 201.956 267.872 202.12 267.992 202.34C268.112 202.56 268.14 202.819 268.07 203.06C268.004 203.248 267.882 203.411 267.72 203.526C267.558 203.641 267.365 203.703 267.167 203.704Z" fill="#E6E7E8"/>
<path d="M213.382 329.516C213.27 329.542 213.154 329.542 213.043 329.516L109.573 288.752C109.453 288.707 109.343 288.636 109.253 288.544C109.162 288.453 109.091 288.343 109.046 288.222C108.953 287.985 108.953 287.721 109.046 287.484L174.308 142.398C174.402 142.189 174.569 142.023 174.777 141.929C174.984 141.835 175.219 141.82 175.436 141.886L279.96 172.426C280.088 172.463 280.207 172.529 280.307 172.617C280.408 172.705 280.489 172.814 280.543 172.937C280.594 173.06 280.621 173.192 280.621 173.325C280.621 173.459 280.594 173.59 280.543 173.713L214.153 328.967C214.081 329.116 213.972 329.245 213.838 329.341C213.703 329.437 213.546 329.497 213.382 329.516ZM111.247 287.275L212.836 327.357L278.455 173.865L175.718 143.855L111.247 287.275Z" fill="#E6E7E8"/>
<path d="M132.618 178.238C132.618 178.238 138.789 153.852 148.76 149.706C158.73 145.559 176.301 144.291 171.335 149.176C166.368 154.06 152.39 156.901 152.39 156.901C152.39 156.901 157.921 188.349 145.204 191.814C132.487 195.278 132.618 178.238 132.618 178.238Z" fill="white"/>
<path d="M142.024 193.234C140.106 193.27 138.231 192.656 136.7 191.492C131.677 187.591 131.677 178.617 131.677 178.238C131.668 178.163 131.668 178.087 131.677 178.011C131.941 177.008 138.093 153.133 148.383 148.854C156.021 145.673 170.714 143.458 172.84 146.695C173.178 147.226 173.536 148.343 171.993 149.876C167.591 154.231 156.68 156.938 153.463 157.658C154.309 163.016 157.733 189.39 145.448 192.76C144.331 193.063 143.181 193.222 142.024 193.234ZM133.559 178.352C133.559 179.355 133.841 186.872 137.867 189.996C138.894 190.708 140.075 191.162 141.313 191.32C142.55 191.478 143.807 191.336 144.978 190.905C156.717 187.705 151.544 157.374 151.487 157.071C151.448 156.828 151.501 156.58 151.638 156.375C151.774 156.171 151.983 156.027 152.221 155.973C152.371 155.973 166.011 153.133 170.695 148.513C171.259 147.945 171.278 147.699 171.278 147.68C170.45 146.222 158.109 146.847 149.117 150.596C140.124 154.344 134.029 176.572 133.559 178.352Z" fill="#231F20"/>
<path d="M56.7649 130.015C44.4238 127.005 37.2373 112.975 33.4371 101.88C29.129 89.176 24.2941 78.8384 28.7339 65.1117C29.7498 61.9499 31.4806 58.6176 34.5847 57.5384C35.3619 57.3846 36.1026 57.0826 36.767 56.6485C37.2805 56.0796 37.6429 55.3892 37.8205 54.6416C44.2733 36.7685 65.099 35.1592 80.8829 36.7875C90.0259 37.7341 102.01 41.2557 105.34 50.4763C111.435 67.5163 108.067 86.4496 99.3382 101.899C91.1359 116.421 75.2203 134.521 56.7649 130.015Z" fill="white"/>
<path d="M62.4463 131.643C60.4569 131.641 58.4746 131.406 56.5391 130.943C43.7088 127.8 36.4094 113.581 32.5528 102.202C32.0637 100.744 31.5557 99.3053 31.0666 97.9042C27.1724 86.8471 23.8049 77.2669 27.8496 64.8656C29.2794 60.4352 31.4428 57.6898 34.2836 56.7242L34.9044 56.5349C35.3466 56.4349 35.7673 56.2553 36.1461 56.0048C36.498 55.5959 36.7493 55.1095 36.8797 54.5848V54.3954C43.5018 36.049 64.4781 34.2314 80.9204 35.9165C87.1851 36.5791 102.198 39.2677 106.148 50.2301C111.924 66.3613 109.723 85.3893 100.091 102.448C91.7754 117.178 77.9104 131.643 62.4463 131.643ZM71.7398 37.2607C58.0817 37.2607 43.7652 41.0474 38.7046 54.9823V55.1717C38.5409 55.96 38.1444 56.6801 37.567 57.2375C36.9895 57.795 36.2582 58.1639 35.4688 58.2957C35.2995 58.2957 35.1113 58.2957 34.942 58.4661C32.7033 59.2234 30.9349 61.5522 29.6933 65.3957C25.9307 77.2479 29.1101 86.5253 32.8914 97.2794L34.3965 101.577C38.159 112.521 45.0445 126.191 56.9718 129.087C73.734 133.196 89.4238 117.5 98.4916 101.445C107.898 84.8781 110.005 66.4181 104.418 50.817C100.843 40.8581 86.6771 38.3589 80.7511 37.753C77.7577 37.4335 74.75 37.2692 71.7398 37.2607Z" fill="#231F20"/>
<path d="M109.986 92.0917C109.986 92.0917 123.87 107.75 122.026 111.688C120.183 115.626 112.018 114.395 112.018 114.395" fill="white"/>
<path d="M114.803 115.512C113.828 115.514 112.853 115.451 111.887 115.323C111.637 115.285 111.413 115.149 111.263 114.945C111.113 114.741 111.05 114.485 111.087 114.234C111.124 113.983 111.259 113.757 111.462 113.607C111.665 113.456 111.919 113.392 112.169 113.43C114.238 113.752 119.92 113.96 121.18 111.271C122.158 109.189 115.762 99.9112 109.29 92.6976C109.202 92.6096 109.132 92.5049 109.085 92.3896C109.037 92.2742 109.012 92.1505 109.012 92.0255C109.012 91.9005 109.037 91.7768 109.085 91.6614C109.132 91.5461 109.202 91.4414 109.29 91.3534C109.466 91.1799 109.703 91.0828 109.949 91.0828C110.195 91.0828 110.432 91.1799 110.607 91.3534C112.997 94.0608 124.811 107.712 122.817 111.991C121.538 114.982 117.587 115.512 114.803 115.512Z" fill="#231F20"/>
<path d="M104.248 69.5422C112.357 74.427 112.075 87.3206 113.184 95.5187C114.765 107.03 116.075 118.586 117.116 130.186C117.775 137.532 99.0185 140.429 95.4064 138.725L102.499 167.125L60.8662 157.658L57.3105 124.203C57.3105 124.203 69.727 122.48 74.9193 106.538C80.1116 90.596 76.4996 67.8003 76.4996 67.8003C76.4996 67.8003 96.347 64.752 104.248 69.5422Z" fill="white"/>
<path d="M102.499 168.071H102.292L60.6592 158.605C60.4664 158.559 60.2924 158.454 60.161 158.305C60.0297 158.156 59.9474 157.97 59.9255 157.772L56.3699 124.316C56.3431 124.071 56.4127 123.825 56.5638 123.63C56.715 123.435 56.9356 123.308 57.1788 123.275C57.6679 123.275 69.0873 121.382 74.1103 106.235C79.1709 90.6907 75.7094 68.16 75.6718 67.9328C75.6516 67.8076 75.6562 67.6796 75.6853 67.5561C75.7143 67.4327 75.7673 67.3162 75.8411 67.2134C75.9921 67.0117 76.2144 66.8761 76.4619 66.8347C77.2708 66.7211 96.7232 63.8054 104.832 68.728C111.98 73.0448 112.94 82.947 113.73 90.9179C113.88 92.5083 114.031 94.004 114.219 95.3862C115.781 106.86 117.097 118.542 118.151 130.091C118.193 131.245 117.914 132.388 117.345 133.392C116.777 134.395 115.942 135.219 114.934 135.771C110.268 139.084 101.163 140.58 96.7797 140.012L103.496 166.897C103.532 167.054 103.529 167.218 103.486 167.374C103.443 167.529 103.363 167.671 103.251 167.787C103.157 167.891 103.04 167.971 102.909 168.02C102.778 168.07 102.638 168.087 102.499 168.071ZM61.7127 156.882L101.22 165.856L94.5033 138.952C94.4613 138.778 94.4691 138.596 94.5257 138.426C94.5824 138.257 94.6856 138.107 94.8234 137.994C94.9612 137.881 95.1279 137.81 95.3044 137.788C95.4808 137.767 95.6596 137.796 95.8202 137.873C98.1718 138.971 108.782 137.759 113.786 134.237C114.508 133.856 115.113 133.285 115.538 132.585C115.962 131.885 116.189 131.082 116.194 130.261C115.16 118.75 113.843 107.087 112.281 95.6323C112.074 94.2502 111.924 92.7166 111.773 91.1072C111.04 83.5339 110.118 74.0672 103.778 70.2806C97.2124 66.3046 81.5602 68.0086 77.5907 68.5198C78.2115 73.0827 80.4878 92.4515 75.8223 106.765C71.2696 120.757 61.3929 124.146 58.3452 124.884L61.7127 156.882Z" fill="#231F20"/>
<path d="M115.593 121.666C115.593 121.666 104.305 122.29 100.787 107.087Z" fill="white"/>
<path d="M115.499 122.574C114.088 122.574 103.308 122.082 99.8839 107.276C99.8555 107.152 99.8517 107.023 99.8727 106.897C99.8938 106.772 99.9392 106.651 100.006 106.543C100.074 106.435 100.161 106.341 100.265 106.267C100.368 106.193 100.485 106.14 100.608 106.112C100.732 106.083 100.86 106.079 100.985 106.101C101.11 106.122 101.229 106.167 101.337 106.235C101.444 106.303 101.537 106.391 101.611 106.495C101.684 106.599 101.737 106.716 101.765 106.841C105.057 121.098 115.48 120.7 115.611 120.681C115.735 120.676 115.858 120.695 115.974 120.738C116.09 120.781 116.197 120.847 116.288 120.931C116.379 121.016 116.452 121.117 116.504 121.23C116.556 121.343 116.585 121.466 116.59 121.59C116.597 121.713 116.58 121.837 116.54 121.954C116.499 122.07 116.436 122.178 116.353 122.269C116.271 122.361 116.171 122.435 116.06 122.488C115.949 122.54 115.828 122.57 115.705 122.574H115.499Z" fill="#231F20"/>
<path d="M89.1231 102.732C88.3805 99.9031 86.8768 97.3349 84.7773 95.3104C83.3793 93.5389 81.7314 91.9825 79.886 90.6907C78.9529 90.0496 77.8883 89.6282 76.7712 89.4578C75.6541 89.2873 74.5132 89.3722 73.4332 89.7062C72.513 90.0883 71.6836 90.662 70.9995 91.3897C70.3153 92.1174 69.792 92.9825 69.4637 93.9283C68.8317 95.8284 68.6261 97.8458 68.8617 99.8355C69.2966 104.195 70.8643 108.362 73.4072 111.918C75.95 115.475 79.3784 118.294 83.3475 120.094L82.6138 119.507" fill="white"/>
<path d="M83.3475 120.965C83.2237 120.993 83.0951 120.993 82.9713 120.965C78.8578 119.084 75.3047 116.153 72.6646 112.463C70.0245 108.773 68.3892 104.453 67.921 99.9301C67.6666 97.7916 67.8981 95.6228 68.5983 93.5875C68.9673 92.513 69.5614 91.531 70.3404 90.7078C71.1194 89.8846 72.065 89.2395 73.1134 88.8163C74.3253 88.4334 75.6072 88.3299 76.8643 88.5134C78.1214 88.697 79.3213 89.1629 80.3751 89.8765C82.3011 91.2243 84.0245 92.8439 85.4922 94.6856C87.7089 96.8407 89.2853 99.5746 90.0449 102.581C90.0646 102.705 90.0599 102.832 90.0308 102.955C90.0018 103.077 89.9491 103.193 89.8758 103.295C89.8024 103.397 89.7098 103.483 89.6032 103.549C89.4967 103.615 89.3782 103.659 89.2547 103.679C89.1312 103.699 89.005 103.694 88.8833 103.665C88.7616 103.636 88.6468 103.583 88.5455 103.509C88.4442 103.435 88.3583 103.342 88.2928 103.234C88.2272 103.127 88.1833 103.008 88.1636 102.884C87.4418 100.234 86.0176 97.8325 84.0436 95.9352C82.7309 94.1817 81.1572 92.6426 79.378 91.3723C78.565 90.805 77.6357 90.4288 76.6589 90.2715C75.682 90.1142 74.6825 90.1798 73.7342 90.4635C72.9364 90.7949 72.2182 91.2941 71.6277 91.9275C71.0372 92.561 70.588 93.3142 70.3103 94.1365C69.721 95.9023 69.5345 97.779 69.7647 99.6272C70.1666 103.563 71.525 107.338 73.72 110.62C75.9149 113.903 78.879 116.591 82.3504 118.447C82.4938 118.417 82.642 118.418 82.7849 118.45C82.9278 118.483 83.062 118.546 83.1782 118.636L83.8931 119.223C84.0731 119.366 84.1953 119.569 84.2368 119.796C84.2784 120.022 84.2364 120.256 84.1188 120.454C84.042 120.596 83.9314 120.718 83.7969 120.807C83.6623 120.896 83.508 120.95 83.3475 120.965Z" fill="#231F20"/>
<path d="M95.4064 138.706C95.4064 138.706 85.2287 137.096 79.7354 131.038C79.7354 131.038 82.3503 146.184 98.0025 149.157L95.4064 138.706Z" fill="#231F20"/>
<path d="M98.0024 150.066H97.8331C81.7294 147.093 78.8322 131.341 78.7946 131.132C78.7616 130.927 78.795 130.717 78.8899 130.533C78.9848 130.349 79.1361 130.201 79.3213 130.11C79.501 130.02 79.7047 129.992 79.9016 130.03C80.0985 130.068 80.2778 130.169 80.4125 130.318C85.6236 135.998 95.4627 137.683 95.4627 137.702C95.6454 137.73 95.816 137.811 95.9532 137.935C96.0903 138.06 96.188 138.223 96.234 138.403L98.849 148.854C98.8845 149.007 98.8824 149.166 98.8431 149.317C98.8038 149.469 98.7283 149.609 98.6232 149.725C98.5471 149.82 98.4531 149.899 98.3466 149.957C98.24 150.016 98.1231 150.053 98.0024 150.066ZM81.466 133.972C82.6286 137.396 84.6286 140.47 87.2817 142.912C89.9348 145.354 93.1557 147.085 96.6479 147.945L94.6349 139.558C89.9005 138.66 85.4109 136.756 81.466 133.972Z" fill="#231F20"/>
<path d="M103.957 85.1103C104.011 82.8105 103.33 80.9289 102.437 80.9078C101.544 80.8866 100.776 82.7338 100.722 85.0336C100.668 87.3334 101.349 89.2149 102.242 89.2361C103.135 89.2573 103.903 87.4101 103.957 85.1103Z" fill="#231F20"/>
<path d="M235.43 249.674C248.147 234.414 262.389 215.007 253.265 193.953C252.38 191.946 250.8 189.769 248.637 189.92C247.717 190.069 246.842 190.425 246.078 190.962L238.177 195.809C238.421 193.631 235.693 192.022 233.586 192.685C231.551 193.5 229.852 194.989 228.77 196.907C220.624 208.589 215.338 219.627 215.808 234.073" fill="white"/>
<path d="M235.411 250.621C235.191 250.617 234.978 250.537 234.809 250.393C234.714 250.315 234.635 250.218 234.578 250.108C234.52 249.998 234.485 249.878 234.475 249.755C234.464 249.631 234.478 249.507 234.516 249.389C234.554 249.271 234.616 249.162 234.696 249.068C247.865 233.259 261.222 214.685 252.399 194.332C252.023 193.48 250.706 190.734 248.637 190.867C247.871 191.011 247.146 191.321 246.511 191.776L238.609 196.623C238.461 196.719 238.288 196.77 238.111 196.77C237.934 196.77 237.761 196.719 237.612 196.623C237.466 196.529 237.347 196.396 237.271 196.239C237.195 196.082 237.163 195.907 237.18 195.733C237.2 195.454 237.151 195.174 237.036 194.919C236.921 194.664 236.744 194.443 236.521 194.275C236.156 193.967 235.725 193.746 235.262 193.632C234.799 193.517 234.316 193.51 233.85 193.612C232.036 194.358 230.52 195.69 229.542 197.399C222.6 207.339 216.26 218.642 216.749 233.978C216.754 234.102 216.735 234.227 216.692 234.343C216.649 234.46 216.584 234.567 216.5 234.659C216.416 234.75 216.315 234.824 216.203 234.876C216.091 234.928 215.969 234.958 215.846 234.963C215.599 234.963 215.361 234.87 215.179 234.702C214.998 234.533 214.887 234.302 214.868 234.054C214.36 218.15 220.888 206.506 228.037 196.32C229.23 194.201 231.119 192.568 233.379 191.7C234.153 191.511 234.96 191.509 235.735 191.693C236.509 191.878 237.23 192.243 237.838 192.76C238.308 193.152 238.676 193.652 238.91 194.218L245.627 190.11C246.511 189.484 247.529 189.075 248.599 188.917C250.781 188.746 252.813 190.431 254.243 193.518C264.251 216.654 246.04 238.484 236.258 250.318C236.153 250.435 236.021 250.524 235.873 250.577C235.725 250.63 235.566 250.645 235.411 250.621Z" fill="#231F20"/>
<path d="M228.77 209.706L242.428 167.106L246.68 168.317L238.082 210.444C238.082 210.444 231.968 216.332 228.77 209.706Z" fill="#231F20"/>
<path d="M232.947 213.738C232.665 213.767 232.382 213.767 232.1 213.738C231.17 213.536 230.303 213.108 229.575 212.49C228.847 211.873 228.28 211.086 227.924 210.198C227.83 209.967 227.83 209.709 227.924 209.478L241.6 166.822C241.633 166.703 241.688 166.593 241.764 166.497C241.84 166.401 241.934 166.321 242.042 166.263C242.149 166.204 242.267 166.168 242.388 166.157C242.51 166.146 242.632 166.159 242.748 166.197L247 167.409C247.229 167.471 247.425 167.62 247.548 167.825C247.671 168.029 247.71 168.274 247.658 168.507L239.004 210.652C238.962 210.832 238.871 210.996 238.741 211.126C237.159 212.632 235.116 213.553 232.947 213.738ZM229.786 209.611C230.021 210.16 230.383 210.646 230.841 211.028C231.298 211.409 231.84 211.677 232.42 211.807C234.208 211.828 235.935 211.149 237.236 209.914L245.589 168.999L243.049 168.261L229.786 209.611Z" fill="#231F20"/>
<path d="M211.801 224.606L176.301 290.172C176.301 290.172 165.879 178.182 141.103 161.994C116.326 145.806 72.3796 144.954 35.0551 163.167C5.2933 177.633 -4.24477 319.689 1.66244 378.705H150.716L149.286 352.652C149.286 352.652 158.467 379.386 185.313 372.911C212.158 366.436 243.501 239.507 243.501 239.507L211.801 224.606Z" fill="#E49012"/>
<path d="M149.286 353.504C149.129 353.502 148.975 353.462 148.837 353.386C148.699 353.31 148.582 353.201 148.496 353.069C131.565 327.604 121.688 252.968 121.274 249.788C121.242 249.539 121.309 249.288 121.461 249.089C121.612 248.89 121.836 248.76 122.083 248.727C122.329 248.7 122.576 248.769 122.772 248.921C122.969 249.073 123.099 249.295 123.136 249.541C123.136 250.318 133.427 326.922 150.076 352.028C150.212 352.236 150.261 352.491 150.212 352.735C150.162 352.98 150.019 353.195 149.813 353.334C149.659 353.444 149.475 353.503 149.286 353.504Z" fill="#231F20"/>
<path d="M333.256 99.8355C333.256 116.185 339.71 131.865 351.197 143.426C362.685 154.987 378.265 161.482 394.511 161.482C410.756 161.482 426.337 154.987 437.824 143.426C449.312 131.865 455.765 116.185 455.765 99.8355H394.511V38.1885C378.265 38.1885 362.685 44.6835 351.197 56.2445C339.71 67.8055 333.256 83.4857 333.256 99.8355Z" fill="#E49012"/>
<path d="M404.406 29.0816V90.7475H465.679C465.679 74.3927 459.224 58.7077 447.733 47.1431C436.242 35.5785 420.657 29.0816 404.406 29.0816Z" fill="#E6E7E8"/>
<path d="M480.768 258.667H441.261V293.618H480.768V258.667Z" fill="#E49012"/>
<path d="M462.82 255.051H458.229V262.075H462.82V255.051Z" fill="#E6E7E8"/>
<path d="M460.563 269.933H448.579C448.331 269.928 448.094 269.826 447.919 269.65C447.744 269.473 447.643 269.235 447.638 268.986C447.638 268.735 447.737 268.494 447.914 268.316C448.09 268.139 448.329 268.039 448.579 268.039H460.563C460.812 268.039 461.051 268.139 461.228 268.316C461.404 268.494 461.503 268.735 461.503 268.986C461.498 269.235 461.398 269.473 461.222 269.65C461.047 269.826 460.811 269.928 460.563 269.933Z" fill="white"/>
<path d="M469.743 277.43H448.579C448.331 277.425 448.094 277.324 447.919 277.147C447.744 276.971 447.643 276.733 447.638 276.483C447.638 276.232 447.737 275.992 447.914 275.814C448.09 275.636 448.329 275.537 448.579 275.537H469.743C469.993 275.537 470.232 275.636 470.408 275.814C470.585 275.992 470.684 276.232 470.684 276.483C470.679 276.733 470.578 276.971 470.403 277.147C470.228 277.324 469.991 277.425 469.743 277.43Z" fill="white"/>
<path d="M474.653 270.16H465.83C465.58 270.16 465.341 270.06 465.165 269.882C464.988 269.705 464.889 269.464 464.889 269.213C464.889 268.962 464.988 268.721 465.165 268.544C465.341 268.366 465.58 268.266 465.83 268.266H474.653C474.902 268.266 475.142 268.366 475.318 268.544C475.495 268.721 475.594 268.962 475.594 269.213C475.594 269.464 475.495 269.705 475.318 269.882C475.142 270.06 474.902 270.16 474.653 270.16Z" fill="white"/>
<path d="M306.185 45.9323H285.303C285.187 45.9348 285.073 45.9141 284.966 45.8715C284.859 45.8289 284.761 45.7651 284.679 45.684C284.596 45.6029 284.531 45.506 284.486 45.3991C284.441 45.2922 284.418 45.1773 284.418 45.0614C284.423 44.8287 284.519 44.6071 284.684 44.4443C284.849 44.2815 285.071 44.1904 285.303 44.1904H306.185C306.413 44.1953 306.63 44.2886 306.791 44.4509C306.953 44.6132 307.045 44.8319 307.05 45.0614C307.05 45.1757 307.028 45.289 306.984 45.3947C306.941 45.5003 306.877 45.5963 306.797 45.6772C306.716 45.7581 306.621 45.8222 306.516 45.866C306.411 45.9098 306.298 45.9323 306.185 45.9323Z" fill="#D1D3D4"/>
<path d="M314.048 45.9323H310.079C309.965 45.9349 309.851 45.9141 309.745 45.8713C309.639 45.8284 309.542 45.7644 309.461 45.683C309.38 45.6016 309.317 45.5045 309.274 45.3977C309.232 45.2908 309.211 45.1764 309.214 45.0614C309.214 44.8304 309.305 44.6088 309.467 44.4455C309.629 44.2822 309.849 44.1904 310.079 44.1904H314.048C314.276 44.1953 314.494 44.2886 314.655 44.4509C314.816 44.6132 314.909 44.8319 314.914 45.0614C314.914 45.2923 314.823 45.5139 314.66 45.6772C314.498 45.8405 314.278 45.9323 314.048 45.9323Z" fill="#D1D3D4"/>
<path d="M315.911 58.4851H285.114C284.886 58.4802 284.669 58.3869 284.508 58.2246C284.347 58.0623 284.254 57.8436 284.249 57.6141C284.249 57.3831 284.34 57.1616 284.502 56.9983C284.665 56.835 284.885 56.7432 285.114 56.7432H315.911C316.025 56.7406 316.139 56.7614 316.245 56.8042C316.351 56.8471 316.448 56.9111 316.529 56.9925C316.609 57.0739 316.673 57.171 316.716 57.2778C316.758 57.3846 316.779 57.499 316.776 57.6141C316.776 57.8451 316.685 58.0666 316.523 58.23C316.361 58.3933 316.14 58.4851 315.911 58.4851Z" fill="#D1D3D4"/>
<path d="M295.217 71.1136H285.227C285.017 71.0825 284.825 70.9765 284.687 70.8148C284.548 70.6532 284.472 70.4468 284.472 70.2332C284.472 70.0196 284.548 69.8132 284.687 69.6515C284.825 69.4899 285.017 69.3839 285.227 69.3528H295.217C295.427 69.3839 295.619 69.4899 295.757 69.6515C295.896 69.8132 295.972 70.0196 295.972 70.2332C295.972 70.4468 295.896 70.6532 295.757 70.8148C295.619 70.9765 295.427 71.0825 295.217 71.1136Z" fill="#D1D3D4"/>
<path d="M319.203 70.6592H301.406C301.177 70.6592 300.957 70.5674 300.794 70.4041C300.632 70.2408 300.541 70.0192 300.541 69.7883C300.538 69.6732 300.559 69.5588 300.601 69.4519C300.644 69.3451 300.708 69.2481 300.789 69.1667C300.869 69.0853 300.966 69.0212 301.072 68.9784C301.178 68.9355 301.292 68.9147 301.406 68.9173H319.203C319.433 68.9173 319.653 69.0091 319.815 69.1724C319.977 69.3358 320.068 69.5573 320.068 69.7883C320.064 70.0177 319.971 70.2365 319.81 70.3988C319.648 70.5611 319.431 70.6544 319.203 70.6592Z" fill="#D1D3D4"/>
<path d="M306.185 45.9323H285.303C285.187 45.9348 285.073 45.9141 284.966 45.8715C284.859 45.8289 284.761 45.7651 284.679 45.684C284.596 45.6029 284.531 45.506 284.486 45.3991C284.441 45.2922 284.418 45.1773 284.418 45.0614C284.423 44.8287 284.519 44.6071 284.684 44.4443C284.849 44.2815 285.071 44.1904 285.303 44.1904H306.185C306.413 44.1953 306.63 44.2886 306.791 44.4509C306.953 44.6132 307.045 44.8319 307.05 45.0614C307.05 45.1757 307.028 45.289 306.984 45.3947C306.941 45.5003 306.877 45.5963 306.797 45.6772C306.716 45.7581 306.621 45.8222 306.516 45.866C306.411 45.9098 306.298 45.9323 306.185 45.9323Z" stroke="#E6E7E8" stroke-linecap="round" stroke-linejoin="round"/>
<path d="M314.048 45.9323H310.079C309.965 45.9349 309.851 45.9141 309.745 45.8713C309.639 45.8284 309.542 45.7644 309.461 45.683C309.38 45.6016 309.317 45.5045 309.274 45.3977C309.232 45.2908 309.211 45.1764 309.214 45.0614C309.214 44.8304 309.305 44.6088 309.467 44.4455C309.629 44.2822 309.849 44.1904 310.079 44.1904H314.048C314.276 44.1953 314.494 44.2886 314.655 44.4509C314.816 44.6132 314.909 44.8319 314.914 45.0614C314.914 45.2923 314.823 45.5139 314.66 45.6772C314.498 45.8405 314.278 45.9323 314.048 45.9323Z" stroke="#E6E7E8" stroke-linecap="round" stroke-linejoin="round"/>
<path d="M315.911 58.4851H285.114C284.886 58.4802 284.669 58.3869 284.508 58.2246C284.347 58.0623 284.254 57.8436 284.249 57.6141C284.249 57.3831 284.34 57.1616 284.502 56.9983C284.665 56.835 284.885 56.7432 285.114 56.7432H315.911C316.025 56.7406 316.139 56.7614 316.245 56.8042C316.351 56.8471 316.448 56.9111 316.529 56.9925C316.609 57.0739 316.673 57.171 316.716 57.2778C316.758 57.3846 316.779 57.499 316.776 57.6141C316.776 57.8451 316.685 58.0666 316.523 58.23C316.361 58.3933 316.14 58.4851 315.911 58.4851Z" stroke="#E6E7E8" stroke-linecap="round" stroke-linejoin="round"/>
<path d="M295.217 71.1136H285.227C285.017 71.0825 284.825 70.9765 284.687 70.8148C284.548 70.6532 284.472 70.4468 284.472 70.2332C284.472 70.0196 284.548 69.8132 284.687 69.6515C284.825 69.4899 285.017 69.3839 285.227 69.3528H295.217C295.427 69.3839 295.619 69.4899 295.757 69.6515C295.896 69.8132 295.972 70.0196 295.972 70.2332C295.972 70.4468 295.896 70.6532 295.757 70.8148C295.619 70.9765 295.427 71.0825 295.217 71.1136Z" stroke="#E6E7E8" stroke-linecap="round" stroke-linejoin="round"/>
<path d="M319.203 70.6592H301.406C301.177 70.6592 300.957 70.5674 300.794 70.4041C300.632 70.2408 300.541 70.0192 300.541 69.7883C300.538 69.6732 300.559 69.5588 300.601 69.4519C300.644 69.3451 300.708 69.2481 300.789 69.1667C300.869 69.0853 300.966 69.0212 301.072 68.9784C301.178 68.9355 301.292 68.9147 301.406 68.9173H319.203C319.433 68.9173 319.653 69.0091 319.815 69.1724C319.977 69.3358 320.068 69.5573 320.068 69.7883C320.064 70.0177 319.971 70.2365 319.81 70.3988C319.648 70.5611 319.431 70.6544 319.203 70.6592Z" stroke="#E6E7E8" stroke-linecap="round" stroke-linejoin="round"/>
<path d="M440.244 188.368H338.655C338.406 188.368 338.167 188.268 337.99 188.09C337.814 187.913 337.715 187.672 337.715 187.421C337.715 187.17 337.814 186.929 337.99 186.752C338.167 186.574 338.406 186.474 338.655 186.474H440.244C440.494 186.474 440.733 186.574 440.91 186.752C441.086 186.929 441.185 187.17 441.185 187.421C441.185 187.672 441.086 187.913 440.91 188.09C440.733 188.268 440.494 188.368 440.244 188.368Z" fill="#D1D3D4"/>
<path d="M418.347 211.05H340.198C339.949 211.05 339.71 210.95 339.533 210.773C339.357 210.595 339.258 210.354 339.258 210.103C339.258 209.852 339.357 209.611 339.533 209.434C339.71 209.256 339.949 209.156 340.198 209.156H418.347C418.596 209.156 418.835 209.256 419.012 209.434C419.188 209.611 419.287 209.852 419.287 210.103C419.287 210.354 419.188 210.595 419.012 210.773C418.835 210.95 418.596 211.05 418.347 211.05Z" fill="#D1D3D4"/>
<path d="M429.295 232.918H338.693C338.445 232.913 338.209 232.812 338.033 232.635C337.858 232.459 337.757 232.221 337.752 231.971C337.752 231.72 337.852 231.479 338.028 231.302C338.204 231.124 338.444 231.025 338.693 231.025H429.295C429.545 231.025 429.784 231.124 429.961 231.302C430.137 231.479 430.236 231.72 430.236 231.971C430.236 232.222 430.137 232.463 429.961 232.641C429.784 232.818 429.545 232.918 429.295 232.918Z" fill="#D1D3D4"/>
<path d="M443.724 209.971H429.295C429.046 209.971 428.806 209.871 428.63 209.693C428.454 209.516 428.354 209.275 428.354 209.024C428.354 208.773 428.454 208.532 428.63 208.355C428.806 208.177 429.046 208.077 429.295 208.077H443.724C443.974 208.077 444.213 208.177 444.39 208.355C444.566 208.532 444.665 208.773 444.665 209.024C444.665 209.275 444.566 209.516 444.39 209.693C444.213 209.871 443.974 209.971 443.724 209.971Z" fill="#D1D3D4"/>
<path d="M285.359 116.554H195.716C195.467 116.554 195.227 116.454 195.051 116.276C194.875 116.099 194.775 115.858 194.775 115.607V41.6155C194.775 41.3644 194.875 41.1236 195.051 40.9461C195.227 40.7686 195.467 40.6688 195.716 40.6688C195.966 40.6688 196.205 40.7686 196.381 40.9461C196.558 41.1236 196.657 41.3644 196.657 41.6155V114.66H285.359C285.608 114.66 285.848 114.76 286.024 114.938C286.2 115.115 286.3 115.356 286.3 115.607C286.3 115.858 286.2 116.099 286.024 116.276C285.848 116.454 285.608 116.554 285.359 116.554Z" fill="#E6E7E8"/>
<path d="M195.716 116.554C195.478 116.548 195.25 116.454 195.077 116.289C194.904 116.112 194.808 115.874 194.808 115.626C194.808 115.378 194.904 115.14 195.077 114.963L232.702 74.3512C232.803 74.2487 232.925 74.1701 233.06 74.1213C233.195 74.0725 233.339 74.0547 233.481 74.0693C233.624 74.0838 233.761 74.1303 233.884 74.2053C234.006 74.2803 234.11 74.3819 234.188 74.5027L242.485 87.8696L268.559 59.0341C268.645 58.946 268.747 58.8759 268.861 58.8281C268.974 58.7803 269.095 58.7557 269.218 58.7557C269.34 58.7557 269.462 58.7803 269.575 58.8281C269.688 58.8759 269.79 58.946 269.876 59.0341C269.964 59.1221 270.034 59.2268 270.082 59.3422C270.13 59.4576 270.154 59.5813 270.154 59.7063C270.154 59.8312 270.13 59.955 270.082 60.0703C270.034 60.1857 269.964 60.2904 269.876 60.3784L242.974 90.1416C242.875 90.2518 242.752 90.338 242.615 90.3937C242.479 90.4494 242.331 90.4733 242.184 90.4635C242.04 90.4477 241.903 90.3984 241.782 90.3195C241.661 90.2406 241.56 90.1343 241.488 90.0091L233.172 76.6232L196.356 116.383C196.167 116.51 195.942 116.57 195.716 116.554Z" fill="#E6E7E8"/>
</svg>
