<svg width="500" height="500" viewBox="0 0 500 500" fill="none" xmlns="http://www.w3.org/2000/svg">
<path opacity="0.18" d="M112.95 124.74C84.32 140.03 54.82 156.05 34.87 181.66C22.89 197.06 14.9 215.39 10.7 234.46C3.50001 267.01 8.83001 304.76 33.61 327.14C42.23 334.97 52.78 340.49 63.65 344.73C86.19 353.51 110.43 357.1 134.55 355.24C154.36 353.69 174.13 348.48 193.84 350.96C217.88 353.98 238.87 368.04 261.26 377.3C289.09 388.76 319.39 392.89 349.27 389.3C356.8 388.38 364.43 386.92 371.05 383.22C378.92 378.82 384.74 371.64 390.94 365.08C404.92 350.22 421.41 337.94 439.66 328.81C449.23 324.02 459.37 320.05 467.68 313.31C489.56 295.6 493.31 263.92 492.04 235.82C490.77 207.72 484.43 176.71 461.95 159.64C456.93 155.83 451.28 152.88 446.41 148.87C430.18 135.49 425.32 113.09 414.92 94.7798C391.6 53.8398 339.58 35.9098 292.74 40.9798C225.62 48.2398 170.65 93.9098 112.95 124.73V124.74Z" fill="#FF7547"/>
<path opacity="0.18" d="M83.3401 424.12L45.3001 431.41C44.0101 431.42 42.9801 432.48 42.9901 433.77C43.0001 435.06 44.0601 436.09 45.3501 436.08C45.4601 436.08 45.5701 436.08 45.6801 436.05H475.43C476.71 436.1 477.8 435.1 477.85 433.82C477.9 432.59 476.98 431.53 475.75 431.41L420.3 424.43H419.98L83.8201 424.1C83.6601 424.09 83.5001 424.1 83.3401 424.11V424.12Z" fill="#1D2741"/>
<path d="M464.61 236.11C464 241.75 457.04 251.21 447.42 261.85C433.98 276.68 415.35 293.78 401.61 305.92V196.58C405.12 194.12 408.72 192.3 411.98 191.93C424.1 190.56 448.57 204.74 448.57 204.74C448.57 204.74 466.65 216.51 464.61 236.11Z" fill="#FF7547"/>
<path d="M464.16 173.91C463.12 178.17 464.51 184.07 462.54 187.98C459.22 194.55 449.53 198.9 448.1 206.11C448.01 206.53 437.22 211.73 431.66 209.95C428.75 209.03 427.27 206.19 429.51 199.77C430.21 197.78 434.15 197.04 435.21 195.19L434.99 195.02C429.61 190.95 429.02 182.34 430.14 176.59C431.25 170.84 433.81 165.32 436.55 160.06C438.66 156.01 443.42 153.82 447.98 153.89C453.72 153.99 459.77 156.28 462.76 161.18C465.04 164.91 465.21 169.64 464.17 173.9L464.16 173.91Z" fill="url(#paint0_linear_139_2)"/>
<path d="M437.66 142.94C434.72 144.49 431.6 146.32 428.31 145.82C428.14 147.43 428.85 149 430.18 149.93L428.14 150.39C427.97 150.4 427.81 150.49 427.72 150.63C427.67 150.78 427.69 150.94 427.77 151.08C428.27 152.25 429.1 153.26 430.15 153.98C429.79 154.76 428.47 154.59 428.01 155.31C427.82 155.73 427.82 156.22 428.01 156.64C428.47 157.88 429.24 158.97 430.26 159.8C429.04 161.13 429.8 163.58 431.49 164.18C433.29 164.68 435.17 163.7 435.77 161.93C435.85 162.7 435.67 163.47 435.27 164.13C440.83 165.01 446.78 165.83 451.9 163.47C451.66 164 451.53 164.57 451.52 165.15C452.76 165.54 454.07 165.62 455.34 165.39C455.61 168.12 455.36 170.88 454.62 173.52C454.16 175.16 453.51 176.76 453.21 178.43C452.83 180.13 453.13 181.91 454.05 183.39C454.93 183.31 455.56 182.48 455.89 181.67C456.13 180.82 456.5 180.01 456.98 179.27C458.31 177.72 461.07 178.29 462.13 180.01C463.19 181.73 462.79 184.04 461.77 185.77C460.49 187.83 458.42 189.27 456.04 189.75C456.23 191.6 456.43 193.45 456.62 195.29C460.11 191.97 464.03 189.13 467.17 185.5C470.31 181.87 472.69 177.23 472.29 172.44C472.04 169.49 470.76 166.68 470.66 163.72C470.61 162.39 470.81 161.03 470.76 159.69C470.51 155.33 467.68 151.53 463.56 150.05C461.87 149.47 460.01 149.31 458.51 148.33C456.65 147.12 455.68 144.87 453.83 143.64C451.84 142.31 448.75 141.77 446.44 141.11C443.43 140.27 440.3 141.54 437.65 142.93L437.66 142.94Z" fill="#231F20"/>
<path d="M395.94 205.69C395.46 205.98 395.13 206.46 395.02 207.02C395.07 207.61 395.51 208.09 396.09 208.2C396.66 208.3 397.24 208.27 397.79 208.12L401.16 207.46C399.34 208.48 397.83 209.97 396.79 211.77C396.54 212.2 396.56 212.73 396.85 213.13C397.3 213.7 398.06 213.47 398.67 213.24L401.59 212.07L399.6 214C398.98 214.56 398.44 215.19 398 215.9C397.81 216.23 397.66 216.58 397.58 216.95C397.47 217.44 397.76 217.92 398.24 218.05C398.39 218.1 398.55 218.1 398.7 218.05C399.92 217.7 401.05 217.11 402.02 216.3C401.3 217.31 400.5 218.26 399.63 219.13C398.75 220.01 398.26 221.2 398.25 222.45C398.25 222.58 398.3 222.71 398.38 222.82C398.48 222.92 398.61 222.98 398.74 222.99C399.82 223.17 400.8 222.38 401.62 221.66L404.62 218.93C405.1 218.53 405.53 218.07 405.89 217.56C406.09 217.26 406.2 216.92 406.21 216.56C406.15 215.83 405.51 215.29 404.78 215.35C404.57 215.37 404.36 215.44 404.18 215.56C404.27 214.98 404.49 214.45 404.63 213.88C404.8 213.32 404.76 212.73 404.52 212.2C404.25 211.66 403.62 211.42 403.06 211.65C403.41 210.96 403.64 210.21 403.72 209.44C403.79 208.65 403.42 207.88 402.75 207.45C402.57 207.38 402.4 207.27 402.26 207.14C401.99 206.82 402.21 206.35 402.32 205.95C402.68 204.95 402.17 203.84 401.17 203.48C400.9 203.39 400.62 203.35 400.33 203.37C398.62 203.55 397.19 204.62 395.93 205.7L395.94 205.69Z" fill="#FFAA71"/>
<path d="M450.35 230.6C457.98 223.86 467.42 228.97 464.1 238.59C456.93 259.41 441.92 307.1 427.67 307.1C409.1 307.1 401.59 274.17 401.59 274.17L410.16 256.81C410.16 256.81 422.29 283.42 428.4 276.22C434.51 269.02 438.12 241.74 449.99 230.9L450.34 230.59L450.35 230.6Z" fill="#FF7547"/>
<path d="M407.37 255.68C407.26 254.14 407.23 252.59 407.29 251.04C407.25 244.29 405.26 237.69 401.55 232.04C401.16 232.6 400.99 233.29 401.08 233.96L401.18 251.57C401.24 253.03 401.14 254.49 400.89 255.93C400.66 256.98 400.28 257.98 399.98 259.01C399.35 261.16 399.12 263.41 399.32 265.64C399.38 266.84 399.7 268.01 400.27 269.07C400.86 270.14 401.93 270.85 403.13 271.01C403.52 271.01 405.12 267.69 405.35 267.24C406.06 265.91 406.72 264.58 407.34 263.23C407.8 262.21 408.77 260.7 408.6 259.56C408.41 258.27 407.53 257.09 407.37 255.67V255.68Z" fill="#FFAA71"/>
<path d="M442.81 199.68C441.21 201.48 439.61 203.29 438.01 205.1C436.78 206.64 435.33 207.99 433.69 209.08C433.05 209.46 432.37 209.75 431.66 209.96C428.75 209.04 427.27 206.2 429.51 199.78C430.21 197.79 434.15 197.05 435.21 195.2L434.99 195.03C435.75 195.39 436.56 195.65 437.38 195.81C439.1 196.07 443.35 194.73 443.87 197.28C444.06 198.16 443.43 198.99 442.8 199.67L442.81 199.68Z" fill="#FFAA71"/>
<path d="M395.42 73.6299H123.79V388.22H395.42V73.6299Z" fill="#FF7547"/>
<path d="M395.42 73.6299H123.79V388.22H395.42V73.6299Z" fill="url(#paint1_linear_139_2)"/>
<path d="M358.09 88.8301L123.79 109.83C124.84 109.83 123.79 80.6501 123.79 73.6201H370.82V76.0901C370.82 83.1201 365.12 88.8301 358.09 88.8301Z" fill="url(#paint2_linear_139_2)"/>
<path d="M395.42 109.83H123.79V424.42H395.42V109.83Z" fill="#FF7547"/>
<path d="M162.41 109.83H123.79V424.42H162.41V109.83Z" fill="url(#paint3_linear_139_2)"/>
<path d="M185.87 168.63H138.95V215.55H185.87V168.63Z" fill="white"/>
<path d="M235.4 168.63H188.48V215.55H235.4V168.63Z" fill="white"/>
<path d="M284.93 168.63H238.01V215.55H284.93V168.63Z" fill="white"/>
<path d="M334.45 168.63H287.53V215.55H334.45V168.63Z" fill="white"/>
<path d="M185.87 217.61H138.95V264.53H185.87V217.61Z" fill="white"/>
<path d="M235.4 217.61H188.48V264.53H235.4V217.61Z" fill="white"/>
<path d="M284.93 217.61H238.01V264.53H284.93V217.61Z" fill="white"/>
<path d="M334.45 217.61H287.53V264.53H334.45V217.61Z" fill="white"/>
<path d="M185.87 266.59H138.95V313.51H185.87V266.59Z" fill="white"/>
<path d="M235.4 266.59H188.48V313.51H235.4V266.59Z" fill="white"/>
<path d="M284.93 266.59H238.01V313.51H284.93V266.59Z" fill="white"/>
<path d="M334.45 266.59H287.53V313.51H334.45V266.59Z" fill="white"/>
<path d="M185.87 315.57H138.95V362.49H185.87V315.57Z" fill="white"/>
<path d="M235.4 315.57H188.48V362.49H235.4V315.57Z" fill="white"/>
<path d="M284.93 315.57H238.01V362.49H284.93V315.57Z" fill="white"/>
<path d="M334.45 315.57H287.53V362.49H334.45V315.57Z" fill="white"/>
<path d="M185.87 364.56H138.95V411.48H185.87V364.56Z" fill="white"/>
<path d="M235.4 364.56H188.48V411.48H235.4V364.56Z" fill="white"/>
<path d="M284.93 364.56H238.01V411.48H284.93V364.56Z" fill="white"/>
<path d="M383.15 168.63H336.23V215.55H383.15V168.63Z" fill="white"/>
<path d="M383.15 119.65H336.23V166.57H383.15V119.65Z" fill="white"/>
<path d="M334.45 119.65H287.53V166.57H334.45V119.65Z" fill="white"/>
<path d="M383.15 217.61H336.23V264.53H383.15V217.61Z" fill="white"/>
<path d="M383.15 266.59H336.23V313.51H383.15V266.59Z" fill="white"/>
<path d="M383.15 315.57H336.23V362.49H383.15V315.57Z" fill="white"/>
<path d="M383.15 315.57H336.23V362.49H383.15V315.57Z" fill="white"/>
<path d="M144.83 60.9099V86.3499C144.83 87.7199 146.57 88.8399 148.72 88.8399C150.87 88.8399 152.61 87.7299 152.61 86.3499V60.9099C152.61 59.5399 150.87 58.4199 148.72 58.4199C146.58 58.4199 144.83 59.5299 144.83 60.9099Z" fill="#FF7547"/>
<path d="M181.98 60.9099V86.3499C181.98 87.7199 183.72 88.8399 185.87 88.8399C188.02 88.8399 189.76 87.7299 189.76 86.3499V60.9099C189.76 59.5399 188.02 58.4199 185.87 58.4199C183.72 58.4199 181.98 59.5299 181.98 60.9099Z" fill="#FF7547"/>
<path d="M219.13 60.9099V86.3499C219.13 87.7199 220.87 88.8399 223.02 88.8399C225.17 88.8399 226.91 87.7299 226.91 86.3499V60.9099C226.91 59.5399 225.17 58.4199 223.02 58.4199C220.87 58.4199 219.13 59.5299 219.13 60.9099Z" fill="#FF7547"/>
<path d="M256.29 60.9099V86.3499C256.29 87.7199 258.03 88.8399 260.18 88.8399C262.32 88.8399 264.07 87.7299 264.07 86.3499V60.9099C264.07 59.5399 262.33 58.4199 260.18 58.4199C258.03 58.4199 256.29 59.5299 256.29 60.9099Z" fill="#FF7547"/>
<path d="M293.43 60.9099V86.3499C293.43 87.7199 295.17 88.8399 297.32 88.8399C299.46 88.8399 301.21 87.7299 301.21 86.3499V60.9099C301.21 59.5399 299.47 58.4199 297.32 58.4199C295.17 58.4199 293.43 59.5299 293.43 60.9099Z" fill="#FF7547"/>
<path d="M330.58 60.9099V86.3499C330.58 87.7199 332.32 88.8399 334.47 88.8399C336.62 88.8399 338.36 87.7299 338.36 86.3499V60.9099C338.36 59.5399 336.62 58.4199 334.47 58.4199C332.33 58.4199 330.58 59.5299 330.58 60.9099Z" fill="#FF7547"/>
<path d="M366.93 60.9099V86.3499C366.93 87.7199 368.67 88.8399 370.82 88.8399C372.97 88.8399 374.71 87.7299 374.71 86.3499V60.9099C374.71 59.5399 372.97 58.4199 370.82 58.4199C368.68 58.4199 366.93 59.5299 366.93 60.9099Z" fill="#FF7547"/>
<path d="M401.6 73.6299H395.42V424.42H401.6V73.6299Z" fill="#FF7547"/>
<path d="M401.61 73.6201H395.43V424.42H401.61V73.6201Z" fill="url(#paint4_linear_139_2)"/>
<path d="M298.37 126.53C298.37 128.59 296.71 130.27 294.64 130.27C292.58 130.27 290.9 128.61 290.9 126.54C290.9 124.48 292.56 122.8 294.63 122.8C296.69 122.8 298.36 124.47 298.37 126.53Z" fill="url(#paint5_linear_139_2)"/>
<path d="M298.37 175.51C298.37 177.57 296.71 179.25 294.64 179.25C292.57 179.25 290.9 177.59 290.9 175.52C290.9 173.46 292.56 171.78 294.63 171.78C296.69 171.78 298.36 173.45 298.37 175.51Z" fill="url(#paint6_linear_139_2)"/>
<path d="M307.49 175.51C307.49 177.57 305.83 179.25 303.76 179.25C301.69 179.25 300.02 177.59 300.02 175.52C300.02 173.46 301.68 171.78 303.75 171.78C305.81 171.78 307.48 173.45 307.49 175.51Z" fill="url(#paint7_linear_139_2)"/>
<path d="M316.66 175.51C316.66 177.57 315 179.25 312.93 179.25C310.86 179.25 309.19 177.59 309.19 175.52C309.19 173.46 310.85 171.78 312.92 171.78C314.98 171.78 316.65 173.45 316.66 175.51Z" fill="url(#paint8_linear_139_2)"/>
<path d="M298.37 274.18C298.37 276.24 296.7 277.91 294.64 277.91C292.58 277.91 290.91 276.24 290.91 274.18C290.91 272.12 292.58 270.45 294.64 270.45C296.7 270.45 298.37 272.12 298.37 274.18Z" fill="url(#paint9_linear_139_2)"/>
<path d="M307.49 274.18C307.49 276.24 305.82 277.91 303.76 277.91C301.7 277.91 300.03 276.24 300.03 274.18C300.03 272.12 301.7 270.45 303.76 270.45C305.82 270.45 307.49 272.12 307.49 274.18Z" fill="url(#paint10_linear_139_2)"/>
<path d="M316.66 274.18C316.66 276.24 314.99 277.91 312.93 277.91C310.87 277.91 309.2 276.24 309.2 274.18C309.2 272.12 310.87 270.45 312.93 270.45C314.99 270.45 316.66 272.12 316.66 274.18Z" fill="url(#paint11_linear_139_2)"/>
<path d="M250.289 338.03L256.969 348.42C257.589 349.38 258.879 349.66 259.839 349.04C259.999 348.93 260.149 348.8 260.279 348.65L278.689 327.43C279.439 326.57 279.349 325.26 278.489 324.51C278.109 324.18 277.629 324 277.129 324H276.979C276.369 324 275.779 324.27 275.389 324.74L260.989 341.98C260.259 342.85 258.959 342.98 258.089 342.25C257.929 342.12 257.789 341.96 257.679 341.79L253.759 335.82C253.309 335.15 252.519 334.79 251.719 334.91C250.599 335.1 249.839 336.17 250.029 337.29C250.069 337.54 250.159 337.78 250.289 338V338.03Z" fill="#FF7547"/>
<path d="M150.289 389.03L156.969 399.42C157.589 400.38 158.879 400.66 159.839 400.04C159.999 399.93 160.149 399.8 160.279 399.65L178.689 378.43C179.439 377.57 179.349 376.26 178.489 375.51C178.109 375.18 177.629 375 177.129 375H176.979C176.369 375 175.779 375.27 175.389 375.74L160.989 392.98C160.259 393.85 158.959 393.98 158.089 393.25C157.929 393.12 157.789 392.96 157.679 392.79L153.759 386.82C153.309 386.15 152.519 385.79 151.719 385.91C150.599 386.1 149.839 387.17 150.029 388.29C150.069 388.54 150.159 388.78 150.289 389V389.03Z" fill="#FF7547"/>
<path d="M197.289 389.03L203.969 399.42C204.589 400.38 205.879 400.66 206.839 400.04C206.999 399.93 207.149 399.8 207.279 399.65L225.689 378.43C226.439 377.57 226.349 376.26 225.489 375.51C225.109 375.18 224.629 375 224.129 375H223.979C223.369 375 222.779 375.27 222.389 375.74L207.989 392.98C207.259 393.85 205.959 393.98 205.089 393.25C204.929 393.12 204.789 392.96 204.679 392.79L200.759 386.82C200.309 386.15 199.519 385.79 198.719 385.91C197.599 386.1 196.839 387.17 197.029 388.29C197.069 388.54 197.159 388.78 197.289 389V389.03Z" fill="#FF7547"/>
<path d="M247.289 390.03L253.969 400.42C254.589 401.38 255.879 401.66 256.839 401.04C256.999 400.93 257.149 400.8 257.279 400.65L275.689 379.43C276.439 378.57 276.349 377.26 275.489 376.51C275.109 376.18 274.629 376 274.129 376H273.979C273.369 376 272.779 376.27 272.389 376.74L257.989 393.98C257.259 394.85 255.959 394.98 255.089 394.25C254.929 394.12 254.789 393.96 254.679 393.79L250.759 387.82C250.309 387.15 249.519 386.79 248.719 386.91C247.599 387.1 246.839 388.17 247.029 389.29C247.069 389.54 247.159 389.78 247.289 390V390.03Z" fill="#FF7547"/>
<path d="M298.289 338.03L304.969 348.42C305.589 349.38 306.879 349.66 307.839 349.04C307.999 348.93 308.149 348.8 308.279 348.65L326.689 327.43C327.439 326.57 327.349 325.26 326.489 324.51C326.109 324.18 325.629 324 325.129 324H324.979C324.369 324 323.779 324.27 323.389 324.74L308.989 341.98C308.259 342.85 306.959 342.98 306.089 342.25C305.929 342.12 305.789 341.96 305.679 341.79L301.759 335.82C301.309 335.15 300.519 334.79 299.719 334.91C298.599 335.1 297.839 336.17 298.029 337.29C298.069 337.54 298.159 337.78 298.289 338V338.03Z" fill="#FF7547"/>
<path d="M345.289 338.03L351.969 348.42C352.589 349.38 353.879 349.66 354.839 349.04C354.999 348.93 355.149 348.8 355.279 348.65L373.689 327.43C374.439 326.57 374.349 325.26 373.489 324.51C373.109 324.18 372.629 324 372.129 324H371.979C371.369 324 370.779 324.27 370.389 324.74L355.989 341.98C355.259 342.85 353.959 342.98 353.089 342.25C352.929 342.12 352.789 341.96 352.679 341.79L348.759 335.82C348.309 335.15 347.519 334.79 346.719 334.91C345.599 335.1 344.839 336.17 345.029 337.29C345.069 337.54 345.159 337.78 345.289 338V338.03Z" fill="#FF7547"/>
<path d="M94.4401 365.05H96.5001L97.5201 411.51L96.5001 403.85H94.4401V365.05Z" fill="#FF7547"/>
<path d="M96.5001 381.98V382.03C96.5001 383.48 95.9801 384.93 95.4301 386.67C91.8101 387.72 89.4001 388.56 85.8401 384.89C82.2901 381.22 78.6201 374.11 79.7801 370.53C83.4001 369.48 90.4601 373.3 94.0201 376.97C95.8601 378.85 96.4901 380.42 96.5001 381.98Z" fill="#FF7547"/>
<path d="M107.1 384.92C103.84 388.08 101.54 387.66 98.55 386.7V403.85H96.49V365.04H98.55V377.38C98.74 377.17 98.95 376.96 99.17 376.72C102.84 373.17 109.95 369.49 113.53 370.66C114.58 374.3 110.76 381.36 107.09 384.92H107.1Z" fill="#FF7547"/>
<path d="M107.1 384.92C103.84 388.08 101.54 387.66 98.55 386.7V403.85H96.49V365.04H98.55V377.38C98.74 377.17 98.95 376.96 99.17 376.72C102.84 373.17 109.95 369.49 113.53 370.66C114.58 374.3 110.76 381.36 107.09 384.92H107.1Z" fill="url(#paint12_linear_139_2)"/>
<path d="M96.5001 355.68H87.3201C87.3201 362.2 91.4201 367.48 96.4901 367.48L98.6501 361.69L96.4901 355.68H96.5001Z" fill="#FF7547"/>
<path d="M96.66 357.94L96.5 358.05V357.39L96.66 357.94Z" fill="#FF7547"/>
<path d="M79.12 342.38C77.96 345.97 81.63 353.08 85.19 356.74C88.75 360.41 91.16 359.58 94.77 358.52C95.93 354.93 96.92 352.49 93.36 348.81C89.8 345.14 82.74 341.32 79.12 342.37V342.38Z" fill="#FF7547"/>
<path d="M106.44 356.79C106.13 357.09 105.84 357.35 105.54 357.59C104.83 363.2 101.04 367.48 96.49 367.48V358.05L96.65 357.94L96.49 357.38V358.04C96.28 358.19 96.06 358.32 95.83 358.42C92.57 356.53 89.93 350.52 90.14 345.4C90.35 340.28 92.93 332.73 96.32 331.08C99.58 332.97 101.71 340.7 101.52 345.82V346.2C105.28 343.62 110.14 341.64 112.91 342.54C113.94 346.17 110.11 353.22 106.44 356.78V356.79Z" fill="#FF7547"/>
<path d="M106.44 356.79C106.13 357.09 105.84 357.35 105.54 357.59C104.83 363.2 101.04 367.48 96.49 367.48V358.05L96.65 357.94L96.49 357.38V358.04C96.28 358.19 96.06 358.32 95.83 358.42C92.57 356.53 89.93 350.52 90.14 345.4C90.35 340.28 92.93 332.73 96.32 331.08C99.58 332.97 101.71 340.7 101.52 345.82V346.2C105.28 343.62 110.14 341.64 112.91 342.54C113.94 346.17 110.11 353.22 106.44 356.78V356.79Z" fill="url(#paint13_linear_139_2)"/>
<path d="M96.66 357.94L96.5 358.05V357.39L96.66 357.94Z" fill="#FF7547"/>
<path d="M78.36 397.93L81.59 424.09H96.56L102.68 409.21L96.56 397.2L78.36 397.93Z" fill="#FF7547"/>
<path d="M114.77 397.93L111.54 424.09H96.5601V397.2L114.77 397.93Z" fill="#FF7547"/>
<path d="M103.23 397.38L103.06 397.46L97.98 399.98L96.59 400.68H76.37C75.1 400.68 74.07 399.65 74.07 398.38V392.53C74.06 391.39 74.97 390.46 76.11 390.45H76.3L96.59 390.49L103.22 397.38H103.23Z" fill="#FF7547"/>
<path d="M103.23 397.38L103.06 397.46L97.98 399.98L96.59 400.68H76.37C75.1 400.68 74.07 399.65 74.07 398.38V392.53C74.06 391.39 74.97 390.46 76.11 390.45H76.3L96.59 390.49L103.22 397.38H103.23Z" fill="url(#paint14_linear_139_2)"/>
<path d="M116.75 400.68H96.5601V390.23H116.75C118.02 390.23 119.05 391.26 119.05 392.53V398.38C119.05 399.65 118.02 400.68 116.75 400.68Z" fill="#FF7547"/>
<path d="M96.5701 400.68V424.09H81.5901L78.7001 400.68H96.5701Z" fill="url(#paint15_linear_139_2)"/>
<path d="M114.43 400.68L111.54 424.09H96.5701V400.68H114.43Z" fill="url(#paint16_linear_139_2)"/>
<path d="M119.05 392.8V398.65C119.05 399.92 118.02 400.95 116.75 400.95H96.6V390.5H116.78C118.04 390.52 119.05 391.54 119.05 392.8Z" fill="url(#paint17_linear_139_2)"/>
<defs>
<linearGradient id="paint0_linear_139_2" x1="474.05" y1="194.54" x2="412.49" y2="170.53" gradientUnits="userSpaceOnUse">
<stop stop-color="#ECC4D7"/>
<stop offset="0.16" stop-color="#EDCBD5"/>
<stop offset="0.42" stop-color="#EFD4D1"/>
<stop offset="0.7" stop-color="#F2EAC9"/>
</linearGradient>
<linearGradient id="paint1_linear_139_2" x1="276.85" y1="-5.88011" x2="264.22" y2="167.49" gradientUnits="userSpaceOnUse">
<stop stop-color="#231F20" stop-opacity="0"/>
<stop offset="1" stop-color="#231F20"/>
</linearGradient>
<linearGradient id="paint2_linear_139_2" x1="244.87" y1="54.0501" x2="247.86" y2="100.35" gradientUnits="userSpaceOnUse">
<stop/>
<stop offset="0.1" stop-opacity="0.77"/>
<stop offset="0.99" stop-opacity="0"/>
</linearGradient>
<linearGradient id="paint3_linear_139_2" x1="211.36" y1="266.96" x2="-167.36" y2="268.08" gradientUnits="userSpaceOnUse">
<stop stop-color="#231F20" stop-opacity="0"/>
<stop offset="1" stop-color="#231F20"/>
</linearGradient>
<linearGradient id="paint4_linear_139_2" x1="478.94" y1="261.53" x2="176.45" y2="214.47" gradientUnits="userSpaceOnUse">
<stop stop-color="#231F20" stop-opacity="0"/>
<stop offset="1" stop-color="#231F20"/>
</linearGradient>
<linearGradient id="paint5_linear_139_2" x1="294.43" y1="123.39" x2="295.68" y2="142.31" gradientUnits="userSpaceOnUse">
<stop stop-color="#231F20" stop-opacity="0"/>
<stop offset="1" stop-color="#231F20"/>
</linearGradient>
<linearGradient id="paint6_linear_139_2" x1="294.43" y1="172.38" x2="295.68" y2="191.31" gradientUnits="userSpaceOnUse">
<stop stop-color="#231F20" stop-opacity="0"/>
<stop offset="1" stop-color="#231F20"/>
</linearGradient>
<linearGradient id="paint7_linear_139_2" x1="303.55" y1="172.38" x2="304.79" y2="191.31" gradientUnits="userSpaceOnUse">
<stop stop-color="#231F20" stop-opacity="0"/>
<stop offset="1" stop-color="#231F20"/>
</linearGradient>
<linearGradient id="paint8_linear_139_2" x1="312.72" y1="172.38" x2="313.96" y2="191.31" gradientUnits="userSpaceOnUse">
<stop stop-color="#231F20" stop-opacity="0"/>
<stop offset="1" stop-color="#231F20"/>
</linearGradient>
<linearGradient id="paint9_linear_139_2" x1="294.43" y1="271.04" x2="295.67" y2="289.97" gradientUnits="userSpaceOnUse">
<stop stop-color="#231F20" stop-opacity="0"/>
<stop offset="1" stop-color="#231F20"/>
</linearGradient>
<linearGradient id="paint10_linear_139_2" x1="303.55" y1="271.04" x2="304.79" y2="289.97" gradientUnits="userSpaceOnUse">
<stop stop-color="#231F20" stop-opacity="0"/>
<stop offset="1" stop-color="#231F20"/>
</linearGradient>
<linearGradient id="paint11_linear_139_2" x1="312.72" y1="271.04" x2="313.96" y2="289.97" gradientUnits="userSpaceOnUse">
<stop stop-color="#231F20" stop-opacity="0"/>
<stop offset="1" stop-color="#231F20"/>
</linearGradient>
<linearGradient id="paint12_linear_139_2" x1="100.84" y1="405.54" x2="104.96" y2="370.06" gradientUnits="userSpaceOnUse">
<stop offset="0.1" stop-opacity="0.77"/>
<stop offset="0.99" stop-opacity="0"/>
</linearGradient>
<linearGradient id="paint13_linear_139_2" x1="116.39" y1="351.23" x2="95.29" y2="349.18" gradientUnits="userSpaceOnUse">
<stop offset="0.1" stop-opacity="0.77"/>
<stop offset="0.99" stop-opacity="0"/>
</linearGradient>
<linearGradient id="paint14_linear_139_2" x1="89.32" y1="351.93" x2="88.59" y2="399.28" gradientUnits="userSpaceOnUse">
<stop offset="0.36" stop-opacity="0.77"/>
<stop offset="0.99" stop-opacity="0"/>
</linearGradient>
<linearGradient id="paint15_linear_139_2" x1="87.3701" y1="391.79" x2="88.1201" y2="416.93" gradientUnits="userSpaceOnUse">
<stop/>
<stop offset="0.1" stop-opacity="0.77"/>
<stop offset="0.99" stop-opacity="0"/>
</linearGradient>
<linearGradient id="paint16_linear_139_2" x1="113.11" y1="395.43" x2="96.8601" y2="425.86" gradientUnits="userSpaceOnUse">
<stop/>
<stop offset="0.1" stop-opacity="0.77"/>
<stop offset="0.99" stop-opacity="0"/>
</linearGradient>
<linearGradient id="paint17_linear_139_2" x1="114.02" y1="373.36" x2="104.5" y2="406.23" gradientUnits="userSpaceOnUse">
<stop offset="0.1" stop-opacity="0.77"/>
<stop offset="0.99" stop-opacity="0"/>
</linearGradient>
</defs>
</svg>
